<svg width="16" height="16" fill="none" xmlns="http://www.w3.org/2000/svg"><g clip-path="url(#clip0)"><path d="M14.393 6.957a1.062 1.062 0 00-.184-.013H3.728l.228-.107c.224-.105.427-.25.6-.425l2.94-2.939a1.1 1.1 0 00.154-1.409 1.063 1.063 0 00-1.594-.138L.74 7.241a1.063 1.063 0 000 1.504l5.316 5.316a1.063 1.063 0 001.594-.107 1.1 1.1 0 00-.154-1.408L4.562 9.6a2.126 2.126 0 00-.531-.388l-.32-.143h10.44a1.1 1.1 0 001.121-.893c.094-.58-.3-1.126-.88-1.22z" fill="#fff"/></g><defs><clipPath id="clip0"><path fill="#fff" transform="translate(.429 .572)" d="M0 0h14.857v14.857H0z"/></clipPath></defs></svg>