<svg width="40" height="40" fill="none" xmlns="http://www.w3.org/2000/svg"><path d="M36.596 9.1c-1.637-2.183-5.29-2.786-10.07-1.682a19.922 19.922 0 00-.317-.722A2.499 2.499 0 0023.42 2.69C22.348 1.735 21.2 1.25 20 1.25c-1.378 0-2.686.636-3.889 1.89-1.007 1.05-1.892 2.488-2.638 4.278-4.78-1.104-8.433-.5-10.07 1.681-1.86 2.482-.796 6.533 2.842 10.901-.198.238-.39.477-.576.716a2.498 2.498 0 00-2.473 4.137c-.997 2.45-.928 4.533.208 6.047 1.1 1.468 3.114 2.222 5.768 2.222 1.292 0 2.736-.18 4.3-.54.746 1.79 1.632 3.228 2.64 4.278 1.202 1.254 2.51 1.89 3.888 1.89 1.378 0 2.686-.636 3.888-1.89 1.007-1.05 1.893-2.488 2.638-4.278.335.077.665.146.991.207a2.5 2.5 0 004.928.232c1.867-.254 3.297-.98 4.15-2.12 1.862-2.482.798-6.533-2.84-10.901 3.638-4.368 4.702-8.42 2.84-10.9zm-1 .75c1.448 1.93.42 5.416-2.674 9.194a36.306 36.306 0 00-4.492-4.132c-.293-2.275-.791-4.437-1.451-6.314 4.133-.922 7.328-.468 8.617 1.251zM25.76 31.097a32.263 32.263 0 01-4.306-1.538 44.307 44.307 0 005.556-3.406 28.773 28.773 0 01-1.25 4.944zm-11.521 0a28.792 28.792 0 01-1.25-4.945 44.294 44.294 0 005.556 3.407 32.276 32.276 0 01-4.306 1.538zm0-22.196c1.47.41 2.909.924 4.306 1.538a44.345 44.345 0 00-5.556 3.406c.27-1.682.688-3.336 1.25-4.944zm1.05 17.314a43.011 43.011 0 01-2.541-1.796 39.496 39.496 0 010-8.84A43.058 43.058 0 0120 11.11a42.539 42.539 0 014.71 2.674 42.93 42.93 0 012.542 1.796c.166 1.467.248 2.943.248 4.42 0 1.477-.082 2.953-.248 4.42A43.011 43.011 0 0120 28.89a42.557 42.557 0 01-4.71-2.674zm-3.903-2.882A33.73 33.73 0 017.899 20a33.772 33.772 0 013.487-3.334 40.894 40.894 0 000 6.668zM25.76 8.902c.563 1.608.98 3.263 1.25 4.945a44.283 44.283 0 00-5.556-3.407 32.26 32.26 0 014.306-1.538zm2.854 7.764A33.74 33.74 0 0132.1 20a33.766 33.766 0 01-3.486 3.334 40.94 40.94 0 000-6.668zM25.624 5a1.25 1.25 0 11-2.5 0 1.25 1.25 0 012.5 0zM20 2.5c.818 0 1.624.325 2.404.965a2.5 2.5 0 002.742 3.913l.156.354A34.698 34.698 0 0020 9.725a34.696 34.696 0 00-5.303-1.994C16.122 4.397 18.034 2.5 20 2.5zM4.404 9.85c1.29-1.72 4.483-2.174 8.617-1.252-.66 1.877-1.158 4.039-1.451 6.313a36.365 36.365 0 00-4.492 4.133c-3.094-3.777-4.122-7.264-2.674-9.195zM5 21.874a1.25 1.25 0 110 2.5 1.25 1.25 0 010-2.5zm-.596 8.276c-1.012-1.35-.688-3.172-.127-4.633a2.5 2.5 0 002.483-4.166c.104-.133.21-.264.318-.396a36.304 36.304 0 004.492 4.132c.293 2.275.79 4.437 1.45 6.314-4.132.922-7.327.468-8.616-1.251zM20 37.5c-1.966 0-3.878-1.897-5.303-5.231A34.693 34.693 0 0020 30.275a34.712 34.712 0 005.303 1.994C23.878 35.603 21.966 37.5 20 37.5zm10-3.75a1.25 1.25 0 110-2.499 1.25 1.25 0 010 2.499zm5.596-3.599c-.633.845-1.735 1.397-3.206 1.616a2.5 2.5 0 00-4.702-.218c-.233-.044-.47-.093-.71-.147.661-1.877 1.158-4.039 1.452-6.313a36.349 36.349 0 004.492-4.133c3.094 3.777 4.122 7.264 2.674 9.195z" fill="#333"/><path d="M20 15a4.999 4.999 0 100 9.998A4.999 4.999 0 0020 15zm0 8.75a3.75 3.75 0 110-7.5 3.75 3.75 0 010 7.5z" fill="#333"/></svg>