<svg width="40" height="40" fill="none" xmlns="http://www.w3.org/2000/svg"><g clip-path="url(#clip0)"><path d="M39.568 2.336c-.01-.391-.07-.823-.432-1.065-.416-.276-.894-.09-1.357.092-1.111.433-2.236.715-3.54.887a.586.586 0 10.153 1.161c1.4-.184 2.611-.488 3.813-.957.043-.016.116-.045.192-.072.023.97-.233 1.722-.782 2.296-.886.927-2.583 1.42-5.045 1.467a.586.586 0 00.011 1.172h.011c1.38-.026 2.542-.182 3.502-.472.017.794-.18 1.428-.594 1.92-.28.333-.667.608-1.16.826l-.013.007c-.855.375-2.023.577-3.495.604a.586.586 0 00.01 1.172h.011c1.252-.023 2.31-.164 3.187-.425a2.802 2.802 0 01-.599 1.537c-.781 1.007-2.187 1.58-3.286 1.72a7.115 7.115 0 00-.45-.725c-.75-1.065-1.906-1.975-3.092-2.436-1.296-.5-2.372-.403-2.954.27-.54.626-.516 1.676-.283 2.555-.49-.078-.99-.168-1.493-.268v-4.56a6.874 6.874 0 004.467-2.827l.024-.034c1.48-2.054 3.137-2.34 5.318-2.52a.586.586 0 10-.096-1.167c-2.333.192-4.407.55-6.173 3.003l-.03.04a5.714 5.714 0 01-3.51 2.311V6.26a3.415 3.415 0 001.531-2.847A3.417 3.417 0 0020.001 0a3.418 3.418 0 00-3.415 3.413c0 1.187.609 2.234 1.53 2.846v1.59A5.735 5.735 0 0114.61 5.54l-.032-.044c-1.928-2.678-4.171-2.85-6.768-3.05-1.636-.125-3.491-.267-5.586-1.084C1.759 1.182 1.28.995.865 1.27.5 1.513.442 1.945.432 2.335c-.035 1.288.337 2.35 1.105 3.153.336.351.743.65 1.222.9-.114 1.276.169 2.329.846 3.133.314.374.707.69 1.182.95a4.012 4.012 0 00.858 2.755c.968 1.237 2.51 1.877 3.722 2.094-.31.967-.358 1.945-.117 2.807.384 1.373 1.43 2.438 3.107 3.165l3.045 1.321c-.938.498-1.727 1.04-2.353 1.62a.586.586 0 00.796.86c.73-.676 1.728-1.304 2.967-1.868l1.716.745-1.307.567c-2.015.874-2.963 1.804-2.898 2.844.063 1.015 1.105 1.848 3.014 2.408l1.188.349.008.002 5.858 1.72c1.9.558 3.062 1.7 3.186 3.133.096 1.116-.483 2.182-1.44 2.654-.956.47-1.573.463-1.738.401.006-.08.055-.327.402-.81.757-1.05.997-1.937.733-2.711-.252-.737-.944-1.277-2.058-1.607l-7.119-2.111c-.144-.043-.464-.15-.486-.156-2.29-.79-3.519-2.07-3.308-3.476a.586.586 0 00-1.159-.175c-.25 1.663.745 3.15 2.716 4.176-1.682.806-2.729 2.138-2.865 3.714-.137 1.594.703 3.123 2.09 3.806.64.315 1.382.553 2.018.553.467 0 .878-.129 1.15-.45.309-.365.496-1.05-.364-2.248-.512-.71-.705-1.264-.574-1.647.152-.444.782-.714 1.284-.863l1.257-.373v4.445c0 1.04.846 1.885 1.885 1.885a1.885 1.885 0 001.882-1.885V33.67l1.26.373c.501.149 1.13.419 1.282.863.13.383-.063.937-.575 1.648-.86 1.196-.672 1.882-.364 2.247.272.321.683.45 1.15.45.637 0 1.378-.238 2.018-.553 1.387-.682 2.228-2.212 2.09-3.806-.136-1.58-1.187-2.914-2.877-3.72 1.671-.889 2.634-2.141 2.692-3.559.074-1.817-1.33-3.604-3.896-5.027l2.981-1.294c1.677-.727 2.721-1.792 3.106-3.164.24-.864.192-1.843-.119-2.81 1.222-.225 2.774-.874 3.736-2.113.615-.793.904-1.73.846-2.734.475-.26.869-.577 1.184-.95.676-.805.959-1.858.843-3.134.48-.249.887-.548 1.222-.9.768-.803 1.14-1.863 1.106-3.15zM16.526 32.92c-1.115.33-1.808.87-2.06 1.608-.264.773-.025 1.66.732 2.71.347.483.396.73.402.81-.165.062-.782.069-1.737-.401-.957-.471-1.536-1.538-1.44-2.654.123-1.433 1.285-2.575 3.188-3.133l.092-.028c.106.035 2.237.669 2.237.669l-1.414.419zm4.185 5.195a.712.712 0 11-1.423 0v-4.792l.713-.211.71.21v4.793zm3.233-22.975c.301.417.799.88 1.609 1.153.824.278 1.051.552 1.056.658.01.252-.596.878-1.978 1.484l-2.748 1.205v-4.842c.7.135 1.39.249 2.06.342zM20 1.172a2.244 2.244 0 012.241 2.241 2.245 2.245 0 01-2.241 2.243 2.246 2.246 0 01-2.243-2.243A2.245 2.245 0 0120 1.172zm0 5.656c.243 0 .481-.026.71-.075v13.401l-.711.312-.712-.312V14.08 8.534 6.752c.23.05.468.076.713.076zm-3.945 8.312a39.226 39.226 0 002.06-.342v4.842l-2.748-1.205c-1.381-.605-1.987-1.233-1.976-1.484.005-.106.231-.38 1.054-.658.81-.272 1.308-.735 1.61-1.153zm-9.487-2.636a2.816 2.816 0 01-.61-1.555c.878.261 1.936.402 3.187.425h.011a.586.586 0 00.011-1.171c-2.33-.043-3.9-.526-4.667-1.436-.415-.494-.611-1.127-.595-1.922.96.29 2.123.446 3.502.472h.01a.586.586 0 00.012-1.172c-2.462-.046-4.16-.54-5.045-1.467-.55-.574-.805-1.326-.782-2.297l.194.073C4.054 3.335 6 3.484 7.719 3.616c2.495.192 4.297.33 5.909 2.568l.027.037a6.894 6.894 0 004.461 2.821v4.56c-.499.1-.997.19-1.492.268.233-.878.258-1.928-.283-2.555-.58-.673-1.657-.771-2.953-.27-1.186.46-2.342 1.371-3.094 2.437a7.091 7.091 0 00-.45.724c-1.088-.13-2.486-.693-3.275-1.702zM20.71 24.918v4.223l-.71.209-.713-.21v-4.223L20 24.61l.712.309zm1.601.695c1.651.715 2.217 1.345 2.195 1.696-.023.364-.704.924-2.175 1.356l-.449.132v-3.37l.43.186zm-6.82 1.696c-.021-.351.544-.98 2.195-1.697l.43-.186v3.37l-.45-.131c-1.47-.432-2.152-.992-2.174-1.356zm11.896.256c-.05 1.23-1.185 2.331-3.12 3.037l-2.188-.642.582-.17c1.91-.56 2.952-1.394 3.015-2.409.064-1.04-.884-1.97-2.898-2.843l-9.955-4.321c-1.338-.58-2.16-1.39-2.445-2.406-.304-1.086.022-2.452.872-3.653l.001-.001c.624-.884 1.58-1.639 2.56-2.019.747-.289 1.422-.313 1.642-.058.282.327.16 1.475-.232 2.191-.162.294-.493.69-1.15.911-1.195.404-1.818.981-1.85 1.717-.051 1.164 1.427 2.061 2.676 2.61l7.912 3.468c2.931 1.285 4.643 3 4.578 4.588zm2.233-9.753c-.284 1.016-1.106 1.825-2.443 2.405l-3.893 1.69a.118.118 0 01-.005-.003l-1.821-.799 3.643-1.596c1.25-.548 2.728-1.445 2.677-2.61-.032-.735-.655-1.313-1.852-1.717-.657-.221-.988-.617-1.149-.908-.393-.719-.514-1.867-.233-2.193.225-.26.886-.236 1.644.057.979.38 1.935 1.135 2.56 2.02.85 1.201 1.176 2.567.872 3.654z" fill="#333"/></g><defs><clipPath id="clip0"><path fill="#fff" d="M0 0h40v40H0z"/></clipPath></defs></svg>