<svg width="40" height="40" fill="none" xmlns="http://www.w3.org/2000/svg"><path d="M13.48 37.73a.89.89 0 00.931-.075l1.843-1.348 1.843 1.348a.891.891 0 001.421-.721v-6.56h5.161a.584.584 0 100-1.168H12.087a.584.584 0 100 1.168h.903v6.56a.89.89 0 00.49.796zm4.87-1.338l-1.75-1.28a.583.583 0 00-.69 0l-1.751 1.28v-6.018h4.191v6.018z" fill="#333"/><path d="M37.852 1.752C37.852.786 37.066 0 36.099 0H13.754A7.248 7.248 0 009.69 1.239a.584.584 0 00.652.969 6.083 6.083 0 013.412-1.04h.462v21.488a.584.584 0 101.168 0V1.168H36.1c.322 0 .584.262.584.585v23.582h-22.88a7.333 7.333 0 00-6.164 3.366V7.283c0-1.17.332-2.307.959-3.288a.584.584 0 00-.985-.629 7.26 7.26 0 00-1.142 3.917s.004 25.733.01 25.767c.2 3.866 3.408 6.95 7.323 6.95h23.244a.804.804 0 00.6-1.336 9.046 9.046 0 01-1.198-1.7.584.584 0 10-1.026.559c.248.456.532.895.848 1.309H13.804a6.171 6.171 0 01-6.165-6.164 6.171 6.171 0 016.165-6.165h22.468a10.156 10.156 0 00-2.08 6.165c0 .695.07 1.39.21 2.065a.584.584 0 101.144-.236 9.073 9.073 0 01-.186-1.83 8.99 8.99 0 012.288-5.996c.16-.18.228-.42.193-.652.003-1.562.01-24.266.01-24.266z" fill="#333"/><path d="M23.758 32.867h7.36a.584.584 0 100-1.168h-7.36a.584.584 0 100 1.168zM18.163 17.18l.468-1.23h3.137l.463 1.228a.584.584 0 101.093-.413l-2.432-6.445a.73.73 0 00-.684-.47.73.73 0 00-.683.469l-2.454 6.444a.584.584 0 001.091.416zm2.043-5.367l1.12 2.97h-2.25l1.13-2.97zM28.33 17.243c.101.192.3.313.517.313h4.764a.584.584 0 100-1.169H29.96l3.94-5.712a.584.584 0 00-.481-.916h-4.451a.584.584 0 100 1.168h3.338l-3.94 5.713a.584.584 0 00-.036.603zM26.896 13.784a.584.584 0 100-1.168h-2.16a.584.584 0 000 1.168h2.16z" fill="#333"/></svg>