<svg width="16" height="16" fill="none" xmlns="http://www.w3.org/2000/svg"><g clip-path="url(#clip0)"><path d="M1.607 6.957c.06-.01.122-.014.184-.013h10.481l-.228-.107a2.125 2.125 0 01-.6-.425l-2.94-2.939a1.1 1.1 0 01-.154-1.409 1.063 1.063 0 011.594-.138l5.315 5.315a1.063 1.063 0 010 1.505L9.944 14.06a1.063 1.063 0 01-1.594-.107 1.1 1.1 0 01.154-1.408L11.438 9.6c.156-.156.335-.287.531-.388l.32-.143H1.848a1.1 1.1 0 01-1.121-.893c-.094-.58.3-1.126.88-1.22z" fill="#fff"/></g><defs><clipPath id="clip0"><path fill="#fff" transform="matrix(-1 0 0 1 15.571 .572)" d="M0 0h14.857v14.857H0z"/></clipPath></defs></svg>