<svg width="58" height="55" fill="none" xmlns="http://www.w3.org/2000/svg"><path d="M52.22 13.717V12.6c0-3.429-2.39-6.287-5.586-7.014A7.213 7.213 0 0039.62 0c-2.676 0-5.014 1.48-6.261 3.663a7.173 7.173 0 00-4.547 2.39 7.109 7.109 0 00-4.547-2.39C23.018 1.481 20.68 0 18.005 0a7.191 7.191 0 00-7.015 5.586A7.213 7.213 0 005.404 12.6v1.117C2.312 14.523 0 17.355 0 20.707v8.105a7.196 7.196 0 0010.834 6.21c.39 3.584 3.455 6.39 7.17 6.39 1.3 0 2.546-.363 3.611-.96v7.352a3.62 3.62 0 01-3.61 3.61c-.988 0-1.793.806-1.793 1.793 0 .988.805 1.793 1.792 1.793a7.196 7.196 0 007.197-7.197V35.801a6.1 6.1 0 001.792-.754v18.16c0 .988.806 1.793 1.793 1.793.987 0 1.793-.805 1.793-1.793v-18.16c.545.312 1.169.572 1.792.754v12.002A7.196 7.196 0 0039.568 55c.987 0 1.792-.805 1.792-1.793 0-.987-.805-1.792-1.792-1.792a3.62 3.62 0 01-3.611-3.611V40.45a7.078 7.078 0 003.61.961c3.69 0 6.756-2.806 7.171-6.39a7.196 7.196 0 0010.834-6.21v-8.106c.052-3.351-2.234-6.183-5.352-6.989zM39.62 3.585a3.62 3.62 0 013.611 3.612V17.172a8.428 8.428 0 00-1.793-.753V7.195c0-.987-.805-1.792-1.792-1.792-.988 0-1.793.805-1.793 1.793v9.223a6.095 6.095 0 00-1.793.753V7.197c-.052-2.001 1.56-3.612 3.56-3.612zm-21.616 0a3.62 3.62 0 013.611 3.612v9.976a8.428 8.428 0 00-1.792-.753V7.197c0-.988-.806-1.793-1.793-1.793-.987 0-1.792.805-1.792 1.793v21.121a3.624 3.624 0 01-1.793-3.117V7.197c-.052-2.001 1.585-3.612 3.56-3.612zM7.196 32.397a3.62 3.62 0 01-3.61-3.611V20.68c0-1.325.727-2.494 1.792-3.117v11.223c0 .987.805 1.793 1.793 1.793.987 0 1.792-.806 1.792-1.793V12.574c0-1.325.728-2.494 1.793-3.117V28.786c.052 2-1.559 3.611-3.56 3.611zm10.808 5.404a3.62 3.62 0 01-3.611-3.611v-2.78c.546.312 1.17.572 1.793.753v2.027c0 .987.805 1.793 1.792 1.793s1.793-.806 1.793-1.793V20.265a3.624 3.624 0 011.793 3.117V34.19c.052 2-1.56 3.611-3.56 3.611zm7.197-5.871V7.69a3.624 3.624 0 011.792 3.118v18.004c.026 1.325-.701 2.494-1.792 3.118zm18.03 2.286a3.62 3.62 0 01-3.611 3.611c-1.455 0-2.702-.883-3.274-2.13a7.766 7.766 0 001.637-.754c.286.624.91 1.066 1.637 1.066.987 0 1.792-.806 1.792-1.793V23.408c0-.987-.805-1.793-1.792-1.793s-1.793.806-1.793 1.793v5.404a3.62 3.62 0 01-3.611 3.611c-2 0-3.611-1.61-3.611-3.611V10.808c0-1.325.727-2.494 1.792-3.118v21.148c0 .987.806 1.793 1.793 1.793.987 0 1.793-.806 1.793-1.793v-5.404a3.62 3.62 0 013.61-3.611 3.62 3.62 0 013.612 3.611v10.782h.026zm10.808-5.404a3.62 3.62 0 01-3.611 3.611c-2.001 0-3.612-1.61-3.612-3.611V9.483A3.624 3.624 0 0148.61 12.6v16.212c0 .987.805 1.793 1.792 1.793.988 0 1.793-.806 1.793-1.793V17.589a3.624 3.624 0 011.793 3.117v8.106h.052z" fill="url(#paint0_linear)"/><defs><linearGradient id="paint0_linear" x1=".004" y1="55.185" x2="55.49" y2="-.301" gradientUnits="userSpaceOnUse"><stop stop-color="#1258E6"/><stop offset=".5" stop-color="#2999D3"/><stop offset="1" stop-color="#1EF39C"/></linearGradient></defs></svg>