<svg width="30" height="30" fill="none" xmlns="http://www.w3.org/2000/svg"><rect width="30" height="30" rx="3" fill="#fff"/><g clip-path="url(#clip0)" fill="#2B313F"><path d="M22.86 10.179l-4.853 4.82 4.852 4.822A1.39 1.39 0 0023 19.22V10.78c0-.216-.053-.419-.14-.602zM21.594 9.375H8.406c-.216 0-.419.053-.602.14l6.202 6.172c.548.548 1.44.548 1.988 0l6.202-6.171a1.39 1.39 0 00-.602-.141zM7.14 10.179a1.39 1.39 0 00-.14.602v8.438c0 .216.053.419.14.602L11.994 15l-4.852-4.821z"/><path d="M17.344 15.663l-.687.687c-.914.913-2.4.913-3.314 0l-.687-.687-4.852 4.821c.183.088.386.141.602.141h13.188c.216 0 .419-.053.602-.14l-4.852-4.822z"/></g><defs><clipPath id="clip0"><path fill="#fff" transform="translate(7 7)" d="M0 0h16v16H0z"/></clipPath></defs></svg>