<svg width="30" height="30" fill="none" xmlns="http://www.w3.org/2000/svg"><rect width="30" height="30" rx="3" fill="#fff"/><g clip-path="url(#clip0)"><path d="M20.877 17.19a7.95 7.95 0 01-2.497-.398c-.39-.134-.87-.011-1.11.234l-1.573 1.188c-1.826-.974-2.95-2.099-3.912-3.91l1.154-1.534c.3-.299.407-.736.278-1.146a7.96 7.96 0 01-.4-2.5c0-.62-.503-1.124-1.123-1.124h-2.57C8.503 8 8 8.504 8 9.123 8 16.223 13.776 22 20.877 22c.62 0 1.123-.504 1.123-1.123v-2.564c0-.62-.504-1.124-1.123-1.124z" fill="#2B313F"/></g><defs><clipPath id="clip0"><path fill="#fff" transform="translate(8 8)" d="M0 0h14v14H0z"/></clipPath></defs></svg>