<svg width="16" height="15" fill="none" xmlns="http://www.w3.org/2000/svg"><g clip-path="url(#clip0)"><path d="M15.119 13.663l-3.57-3.713a6.037 6.037 0 001.42-3.894A6.063 6.063 0 006.913 0 6.063 6.063 0 00.857 6.056a6.063 6.063 0 006.056 6.057 5.991 5.991 0 003.47-1.096l3.597 3.74c.15.157.353.243.57.243a.79.79 0 00.57-1.337zM6.913 1.58a4.481 4.481 0 014.476 4.476 4.481 4.481 0 01-4.476 4.477 4.481 4.481 0 01-4.476-4.477A4.481 4.481 0 016.913 1.58z" fill="#ADADAD"/></g><defs><clipPath id="clip0"><path fill="#fff" transform="translate(.598)" d="M0 0h15v15H0z"/></clipPath></defs></svg>