<svg width="40" height="40" fill="none" xmlns="http://www.w3.org/2000/svg"><g clip-path="url(#clip0)" fill="#333"><path d="M39.53 36.833v-.001L29.79.48a.649.649 0 00-.793-.46l-8.776 2.352a.634.634 0 00-.308.203V1.183a.649.649 0 00-.649-.649H1.097a.649.649 0 00-.65.65v37.632c0 .359.291.65.65.65h18.167c.359 0 .65-.291.65-.65V3.732l9.588 35.787a.649.649 0 00.793.459l8.774-2.352a.649.649 0 00.461-.793zM9.532 38.168H1.745V1.832h7.787v36.336zm9.084 0h-7.787V1.832h7.787v36.336zm11.971.389L21.184 3.459l7.52-2.016 9.404 35.098-7.52 2.016z"/><path d="M7.585 4.428H3.692a.649.649 0 000 1.297h3.893a.649.649 0 000-1.297zM7.585 7.023H3.692a.649.649 0 000 1.298h3.893a.649.649 0 000-1.298zM16.669 4.428h-3.893a.649.649 0 000 1.297h3.893a.649.649 0 000-1.297zM16.669 7.023h-3.893a.649.649 0 000 1.298h3.893a.649.649 0 000-1.298zM28.31 4.926a.649.649 0 00-.817-.471L23.73 5.462a.649.649 0 00.33 1.255l.005-.002 3.764-1.007a.649.649 0 00.48-.782zM28.965 7.42a.649.649 0 00-.795-.459h-.003l-3.76 1.008a.649.649 0 00.33 1.255l.006-.002 3.763-1.007a.649.649 0 00.459-.795zM35.34 31.234a.649.649 0 00-.79-.457l-3.764 1.007a.649.649 0 00.168 1.276h.003a.657.657 0 00.168-.022l3.76-1.008a.649.649 0 00.456-.796zM36.017 33.741a.649.649 0 00-.79-.457l-3.764 1.008a.649.649 0 10.336 1.253l3.763-1.007a.649.649 0 00.455-.797zM16.669 31.68h-3.893a.649.649 0 000 1.297h3.893a.649.649 0 000-1.298zM16.669 34.274h-3.893a.649.649 0 000 1.298h3.893a.649.649 0 000-1.298zM7.585 31.68H3.692a.649.649 0 000 1.297h3.893a.649.649 0 000-1.298zM7.585 34.274H3.692a.649.649 0 000 1.298h3.893a.649.649 0 000-1.298z"/></g><defs><clipPath id="clip0"><path fill="#fff" d="M0 0h40v40H0z"/></clipPath></defs></svg>