<svg width="40" height="40" fill="none" xmlns="http://www.w3.org/2000/svg"><g clip-path="url(#clip0)"><path d="M36.712 10.366a6.007 6.007 0 01-1.202.942l-6.818-6.819c.247-.42.558-.818.942-1.202a1.882 1.882 0 000-2.659 1.883 1.883 0 00-2.66 0c-3.052 3.052-3.096 6.74-2.562 10.071-3.877-.799-8.164-1.139-11.585 2.283-1.547 1.546-2.436 3.363-2.719 5.554a.587.587 0 001.164.15c.248-1.924 1.028-3.518 2.384-4.875 3.153-3.152 7.135-2.698 10.982-1.864.114.574.216 1.025.328 1.52-3.821-.869-7.523-1.483-10.314 1.348-6.239 6.248 4.363 16.907-2.611 23.881a.708.708 0 01-1-1c4.422-4.422.47-10.775.16-16.858a.587.587 0 00-1.172.06c.065 1.262.28 2.526.515 3.669-3.33-.534-7.02-.49-10.07 2.562a1.88 1.88 0 000 2.66 1.88 1.88 0 002.659 0 6.016 6.016 0 011.201-.942l6.819 6.818c-.248.42-.559.818-.942 1.202a1.882 1.882 0 000 2.66 1.882 1.882 0 002.66 0c3.051-3.053 3.096-6.742 2.562-10.072 4.425.912 8.38.922 11.585-2.282 3.421-3.422 3.08-7.709 2.281-11.586 1.114.177 2.232.284 3.358.248a.587.587 0 00-.037-1.173c-1.052.033-2.2-.065-3.59-.31-.113-.495-.223-.962-.346-1.499 3.254.656 6.352.848 8.858-1.657a.708.708 0 011 1c-1.098 1.097-2.338 1.81-3.79 2.179a.587.587 0 10.287 1.137c1.664-.422 3.08-1.235 4.332-2.487.355-.355.551-.827.551-1.33 0-1.67-2.032-2.507-3.21-1.33zM2.303 28.958a.707.707 0 11-1-1c1.9-1.9 4.128-2.471 6.344-2.471 1.071 0 2.14.133 3.168.315.112.493.226.977.346 1.499-3.255-.655-6.353-.848-8.858 1.657zm3.184-.618c1.592-.49 3.496-.303 5.954.218.521 2.458.708 4.362.219 5.954L5.487 28.34zm9.098-2.925c-.448-1.932-.844-3.734-.826-5.364l6.19 6.19c-1.631.017-3.433-.379-5.365-.826zm6.868.671l-7.54-7.54a5.602 5.602 0 011.178-2.47l8.833 8.832a5.595 5.595 0 01-2.47 1.178zm3.3-2.007l-8.832-8.833a5.6 5.6 0 012.47-1.178l7.54 7.54a5.602 5.602 0 01-1.177 2.471zm.507-9.34c.447 1.932.843 3.734.826 5.364l-6.19-6.19c1.63-.017 3.432.379 5.364.826zm.928 11.604c-3.153 3.152-7.135 2.698-10.981 1.864a55.796 55.796 0 00-.329-1.52c3.87.88 7.496 1.47 10.31-1.344 6.198-6.198-4.318-16.951 2.616-23.885a.708.708 0 011 1C22.57 8.69 33.16 19.37 26.188 26.343zm2.216-14.747c-.521-2.458-.709-4.362-.219-5.954l6.173 6.173c-1.592.489-3.497.302-5.954-.219z" fill="#333"/></g><defs><clipPath id="clip0"><path fill="#fff" d="M0 0h40v40H0z"/></clipPath></defs></svg>