<svg width="40" height="40" fill="none" xmlns="http://www.w3.org/2000/svg"><path d="M29.66 13.307a.781.781 0 01-.781-.78V7.183a.781.781 0 011.562 0v5.342c0 .432-.35.781-.78.781zM29.657 5.452a.781.781 0 100-1.563.781.781 0 000 1.563z" fill="#333"/><path d="M37.863 8.208C37.863 3.682 34.182 0 29.657 0c-1.873 0-3.601.63-4.984 1.691H4.98a2.846 2.846 0 00-2.843 2.843v28.42a2.846 2.846 0 002.843 2.843h2.479v1.36A2.846 2.846 0 0010.302 40H30.73a2.847 2.847 0 002.843-2.843V26.32a.781.781 0 00-1.563 0v10.836c0 .706-.574 1.28-1.28 1.28H10.302c-.706 0-1.28-.574-1.28-1.28v-1.36h16.385a2.846 2.846 0 002.843-2.843v-16.66a8.231 8.231 0 003.76-.223v3.186a.781.781 0 001.562 0V15.42a8.215 8.215 0 004.291-7.211zM26.687 32.954c0 .706-.574 1.28-1.28 1.28H4.98c-.706 0-1.28-.574-1.28-1.28V4.534c0-.706.574-1.28 1.28-1.28h18.138a8.165 8.165 0 00-1.66 4.607H8.154a.781.781 0 00-.78.781v3.3c0 .431.349.781.78.781h14.078c.178 0 .342-.06.473-.16a8.254 8.254 0 003.982 3.296v17.095zm-5.236-23.53v1.737H8.936V9.423H21.45zm8.206 5.429a6.652 6.652 0 01-6.643-6.646 6.652 6.652 0 016.643-6.645A6.652 6.652 0 0136.3 8.207a6.652 6.652 0 01-6.643 6.646z" fill="#333"/><path d="M32.79 23.556a.789.789 0 01-.73-.506.788.788 0 01.235-.88.79.79 0 01.908-.059c.28.174.424.518.348.841a.79.79 0 01-.76.604zM22.232 17.003H8.154a.781.781 0 110-1.563h14.078a.781.781 0 010 1.563zM22.232 20.709H8.154a.781.781 0 010-1.563h14.078a.781.781 0 010 1.563zM22.232 24.414H8.154a.781.781 0 010-1.562h14.078a.781.781 0 010 1.562zM22.232 28.12H8.154a.781.781 0 010-1.563h14.078a.781.781 0 010 1.562z" fill="#333"/></svg>