<svg width="40" height="40" fill="none" xmlns="http://www.w3.org/2000/svg"><g clip-path="url(#clip0)" fill="#333"><path d="M39.114 6.746L20.454.079a1.368 1.368 0 00-.911 0L.888 6.746a1.333 1.333 0 000 2.508L10 12.51v4.157c0 2.592 8.976 2.667 10 2.667 1.023 0 10-.075 10-2.667V12.51l2-.71v1.534c0 .736.597 1.333 1.333 1.333h1.333c.737 0 1.334-.597 1.334-1.333v-2a1.972 1.972 0 00-.217-.888l3.333-1.192a1.333 1.333 0 000-2.508h-.003zM28.668 15.2C26.128 14.044 20.777 14 20 14c-.777 0-6.128.044-8.667 1.2V9.392C11.734 8.88 14.878 8 20.001 8c5.123 0 8.266.879 8.666 1.392V15.2zM20 18c-4.934 0-8.032-.814-8.61-1.333.579-.519 3.678-1.333 8.61-1.333 4.932 0 8.031.814 8.61 1.333-.579.519-3.677 1.333-8.61 1.333zm12.313-7.73L30 11.095V9.334c0-2.592-8.977-2.667-10-2.667-1.024 0-10 .075-10 2.667v1.76L1.334 8 20.01 1.334l13.324 4.761v3.361c-.421.15-.78.437-1.02.814zm2.353 3.064h-1.333v-2a.667.667 0 011.333 0v2zm0-3.904V6.572l4 1.428-4 1.43zM38 20.667c-.04 0-.08.003-.12.01A111.625 111.625 0 0120 22c-5.986.04-11.966-.403-17.88-1.322a.746.746 0 00-.12-.011c-.467 0-2 .529-2 7.333 0 6.805 1.533 7.334 2 7.334a.77.77 0 00.12-.012c4.544-.72 9.132-1.139 13.733-1.252L14.55 37.19a1.328 1.328 0 001.762 1.711l.51-.218.221.508c.208.492.692.81 1.226.808h.017a1.329 1.329 0 001.222-.832l1.158-2.772 1.154 2.762c.2.504.684.837 1.226.842h.02a1.324 1.324 0 001.221-.8l.223-.511.502.215a1.329 1.329 0 001.766-1.719l-1.276-3.06c4.147.147 8.282.548 12.381 1.2.038.006.077.01.116.009.467 0 2-.529 2-7.334 0-6.804-1.533-7.333-2-7.333zm-15.867 2.647c.277 1.018.438 2.064.481 3.118a4.626 4.626 0 00-4.64.431 18.009 18.009 0 00-.459-3.555 118.806 118.806 0 004.618.006zM20.667 34a3.333 3.333 0 110-6.666 3.333 3.333 0 010 6.666zM2 22.334c.51 1.843.736 3.755.667 5.666A18.698 18.698 0 012 33.667 18.698 18.698 0 011.333 28 18.698 18.698 0 012 22.334zM3.347 33.78C3.71 32.723 4 30.954 4 28c0-2.953-.289-4.722-.654-5.781 4.236.585 8.502.937 12.777 1.055.4 1.543.583 3.133.544 4.726 0 .097 0 .189-.004.282a4.618 4.618 0 00-.215 4.368l-.03.07c-4.373.108-8.737.462-13.071 1.062v-.002zm14.924 4.887l-.486-1.12a.667.667 0 00-.874-.347l-1.122.496 1.563-3.748a4.662 4.662 0 002.355 1.287l-1.436 3.432zm6.152-1.467a.667.667 0 00-.874.347l-.494 1.109-1.429-3.422a4.667 4.667 0 002.357-1.288l1.56 3.734-1.12-.48zm13.444-3.233c-4.283-.66-8.602-1.06-12.934-1.2l-.047-.115a4.64 4.64 0 00-.899-5.257 18.551 18.551 0 00-.476-4.107c4.808-.108 9.603-.527 14.356-1.255.309.525.8 2.603.8 5.967 0 3.364-.494 5.442-.8 5.967z"/></g><defs><clipPath id="clip0"><path fill="#fff" d="M0 0h40v40H0z"/></clipPath></defs></svg>