<svg width="40" height="40" fill="none" xmlns="http://www.w3.org/2000/svg"><path d="M20 18.756v9.675c0 .432.35.781.78.781h13.368c.431 0 .781-.35.781-.78v-9.676a.781.781 0 00-.781-.781H20.78a.781.781 0 00-.781.78zm13.367 8.894H27.43l4.684-8.113h1.253v8.113zm-11.805-8.113h6.773l-4.684 8.113h-2.089v-8.113z" fill="#333"/><path d="M39.219 12.5c.431 0 .781-.35.781-.781V6.25a.781.781 0 00-.781-.781H26.25v-1.25a.781.781 0 00-.781-.782h-2.657V.781a.781.781 0 00-.78-.781h-4.063a.781.781 0 00-.782.781v2.656h-2.656a.781.781 0 00-.781.782v1.25H.781A.781.781 0 000 6.25v5.469c0 .431.35.781.781.781h.938v22.188H.78a.781.781 0 00-.781.78v3.75c0 .432.35.782.781.782H39.22c.431 0 .781-.35.781-.781v-3.75a.781.781 0 00-.781-.782h-.938V12.5h.938zm-.782-5.469v3.907H22.813V9.062h2.656c.431 0 .781-.35.781-.78v-1.25h12.188zM15.314 5h2.656c.431 0 .781-.35.781-.781V1.562h2.5V4.22c0 .431.35.781.781.781h2.657v2.5H22.03a.781.781 0 00-.781.781v2.656h-2.5V8.281a.781.781 0 00-.781-.781h-2.657V5zM1.563 7.031H13.75v1.25c0 .432.35.781.781.781h2.656v1.876H1.563V7.03zm36.874 31.407H1.563V36.25h36.874v2.188zM7.032 27.898h1.013a.781.781 0 000-1.562H7.031v-6.875h9.218v15.227H7.031v-6.79zm29.688 6.79H17.812V18.68a.781.781 0 00-.782-.781H6.25a.781.781 0 00-.781.78v16.009H3.28V12.5H36.72v22.188z" fill="#333"/></svg>